HIERARCHY
ROOT RootJoint
{
    OFFSET   0.000000   0.000000   0.000000
    CHANNELS 6 Xposition Yposition Zposition Xrotation Yrotation Zrotation
    JOINT pelvis_lowerback
    {
        OFFSET   0.000000   0.093605   0.000000
        CHANNELS 3 Xrotation Yrotation Zrotation
        JOINT lowerback_torso
        {
            OFFSET   0.000000   0.100000   0.000000
            CHANNELS 3 Xrotation Yrotation Zrotation
            JOINT torso_head
            {
                OFFSET   0.000000   0.282350   0.000000
                CHANNELS 3 Xrotation Yrotation Zrotation
                End Site
                {
                    OFFSET   0.000000   0.192650   0.000000
                }
            }
            JOINT rTorso_Clavicle
            {
                OFFSET  -0.001000   0.157500   0.000000
                CHANNELS 3 Xrotation Yrotation Zrotation
                JOINT rShoulder
                {
                    OFFSET  -0.117647   0.000000   0.000000
                    CHANNELS 3 Xrotation Yrotation Zrotation
                    JOINT rElbow
                    {
                        OFFSET  -0.245000   0.000000   0.000000
                        CHANNELS 3 Xrotation Yrotation Zrotation
                        JOINT rWrist
                        {
                            OFFSET  -0.240000   0.000000   0.000000
                            CHANNELS 3 Xrotation Yrotation Zrotation
                            End Site
                            {
                                OFFSET  -0.116353  -0.002500   0.000000
                            }
                        }
                    }
                }
            }
            JOINT lTorso_Clavicle
            {
                OFFSET   0.001000   0.157500   0.000000
                CHANNELS 3 Xrotation Yrotation Zrotation
                JOINT lShoulder
                {
                    OFFSET   0.117647   0.000000   0.000000
                    CHANNELS 3 Xrotation Yrotation Zrotation
                    JOINT lElbow
                    {
                        OFFSET   0.245000   0.000000   0.000000
                        CHANNELS 3 Xrotation Yrotation Zrotation
                        JOINT lWrist
                        {
                            OFFSET   0.240000   0.000000   0.000000
                            CHANNELS 3 Xrotation Yrotation Zrotation
                            End Site
                            {
                                OFFSET   0.116353  -0.002500   0.000000
                            }
                        }
                    }
                }
            }
        }
    }
    JOINT rHip
    {
        OFFSET  -0.100000  -0.051395   0.000000
        CHANNELS 3 Xrotation Yrotation Zrotation
        JOINT rKnee
        {
            OFFSET   0.000000  -0.410000   0.000000
            CHANNELS 3 Xrotation Yrotation Zrotation
            JOINT rAnkle
            {
                OFFSET   0.000000  -0.390000   0.000000
                CHANNELS 3 Xrotation Yrotation Zrotation
                JOINT rToeJoint
                {
                    OFFSET   0.000000  -0.050000   0.130000
                    CHANNELS 3 Xrotation Yrotation Zrotation
                    End Site
                    {
                        OFFSET  -0.010000   0.002000   0.060000
                    }
                }
            }
        }
    }
    JOINT lHip
    {
        OFFSET   0.100000  -0.051395   0.000000
        CHANNELS 3 Xrotation Yrotation Zrotation
        JOINT lKnee
        {
            OFFSET   0.000000  -0.410000   0.000000
            CHANNELS 3 Xrotation Yrotation Zrotation
            JOINT lAnkle
            {
                OFFSET   0.000000  -0.390000   0.000000
                CHANNELS 3 Xrotation Yrotation Zrotation
                JOINT lToeJoint
                {
                    OFFSET   0.000000  -0.050000   0.130000
                    CHANNELS 3 Xrotation Yrotation Zrotation
                    End Site
                    {
                        OFFSET   0.010000   0.002000   0.060000
                    }
                }
            }
        }
    }
}
MOTION
Frames: 14
Frame Time:   0.008333
 -2.376719   0.925631   3.975860   0.000000   0.000000   0.000000   0.000000   0.000000   0.000000   0.000000   0.000000   0.000000   0.000000   0.000000   0.000000   0.000000   0.000000   0.000000   0.000000   0.000000   0.000000   0.000000   0.000000   0.000000   0.000000   0.000000   0.000000   0.000000   0.000000   0.000000   0.000000   0.000000   0.000000   0.000000   0.000000   0.000000   0.000000   0.000000   0.000000   0.000000   0.000000   0.000000   0.000000   0.000000   0.000000   0.000000   0.000000   0.000000   0.000000   0.000000   0.000000   0.000000   0.000000   0.000000   0.000000   0.000000   0.000000   0.000000   0.000000   0.000000   0.000000   0.000000   0.000000
 -2.376501   0.926057   3.976219  -0.037137   0.133940   0.021148  -0.108212  -0.055644   0.002442   0.151800  -0.170258   0.020155   0.001260   0.078556  -0.025410   0.203513  -0.365033   0.046880   0.662563   0.198443   2.228395   0.023403   1.149993  -0.008940   0.373841  -0.345903  -2.610129   0.229948   0.376336  -0.220537   1.131323  -0.080397  -2.116211   0.020797  -1.032279   0.012469   0.444384   0.263820   2.433059  -0.080202   0.066078  -0.202146   0.530104   0.000842   0.000920  -0.715922  -0.251272  -0.014297  -0.141181  -0.000238   0.000062  -0.098580  -0.275160   0.101075   0.634147  -0.000683  -0.000777  -0.868546   0.076156   0.111689   0.303235  -0.000617  -0.000172
 -2.376213   0.926817   3.976804  -0.103004   0.284578   0.042224  -0.243811  -0.128583   0.019472   0.302278  -0.358032   0.045890   0.017200   0.152036  -0.045563   0.401127  -0.707882   0.757634   1.302919   0.442151   4.983956   0.053495   2.261967  -0.014882   0.780322  -0.365332  -4.535630   0.460798   0.713548  -1.116298   2.240621  -0.229445  -4.777815   0.047593  -2.028842   0.021333   0.933264   0.255240   4.152207  -0.128544   0.132667  -0.542153   1.099841   0.002283   0.001782  -1.386735  -0.488817  -0.032079  -0.313083  -0.000691   0.000075  -0.119631  -0.539143   0.315872   1.312805  -0.001967  -0.001260  -1.682718   0.146760   0.217520   0.536051  -0.001187  -0.000220
 -2.375892   0.927533   3.977541  -0.164029   0.432799   0.060038  -0.403639  -0.210265   0.045338   0.421105  -0.548143   0.076554   0.029886   0.220435  -0.061799   0.590408  -1.017972   1.885360   1.917986   0.719532   8.082846   0.082641   3.303394  -0.018202   1.175411  -0.306108  -5.697023   0.683027   1.003067  -2.423929   3.322165  -0.448440  -7.790753   0.073609  -2.965060   0.027055   1.407361   0.164472   5.102995  -0.171864   0.194008  -0.986782   1.645854   0.003901   0.002349  -2.012619  -0.711859  -0.052239  -0.475944  -0.001184   0.000069  -0.092148  -0.782773   0.629861   1.972116  -0.003512  -0.001480  -2.442341   0.212939   0.317966   0.743950  -0.001733  -0.000221
 -2.375557   0.927932   3.978383  -0.214511   0.569702   0.074362  -0.579468  -0.296856   0.076522   0.509522  -0.736403   0.111031   0.037456   0.284293  -0.075694   0.774906  -1.302264   3.256254   2.509810   1.029326  11.413273   0.107529   4.274754  -0.019713   1.552473  -0.232689  -6.289442   0.897734   1.255609  -3.963969   4.377251  -0.738549 -11.036672   0.095896  -3.841955   0.030578   1.861505   0.039683   5.493004  -0.218130   0.250418  -1.512038   2.157323   0.005449   0.002624  -2.597285  -0.921126  -0.074153  -0.630416  -0.001660   0.000064  -0.029268  -1.007545   1.025465   2.601561  -0.005090  -0.001542  -3.151573   0.274886   0.413302   0.929720  -0.002204  -0.000210
 -2.375220   0.927812   3.979293  -0.255150   0.690105   0.085628  -0.764244  -0.386343   0.111083   0.573968  -0.920968   0.148329   0.041220   0.343938  -0.088101   0.956597  -1.566659   4.753481   3.078906   1.370145  14.898338   0.126947   5.179130  -0.020023   1.909898  -0.164543  -6.494371   1.105296   1.479716  -5.617814   5.404908  -1.098775 -14.435163   0.113358  -4.662085   0.032604   2.294862  -0.101982   5.508946  -0.269524   0.302816  -2.098542   2.633621   0.006799   0.002663  -3.143570  -1.117284  -0.097299  -0.776245  -0.002085   0.000065   0.061617  -1.215054   1.485775   3.199983  -0.006562  -0.001522  -3.813775   0.332728   0.503718   1.096333  -0.002578  -0.000201
 -2.374914   0.927009   3.980241  -0.288058   0.791973   0.096343  -0.952353  -0.476921   0.143166   0.620973  -1.100172   0.177929   0.042444   0.399547  -0.096657   1.137658  -1.815609   6.321918   3.616812   1.735357  18.444737   0.140593   6.020477  -0.019506   2.247939  -0.106740  -6.413567   1.307733   1.682383  -7.358364   6.353889  -1.506867 -17.790132   0.125405  -5.429516   0.033290   2.708843  -0.260948   5.206328  -0.326391   0.352011  -2.729429   3.076332   0.007881   0.002530  -3.654067  -1.301039  -0.121285  -0.913676  -0.002435   0.000072   0.174891  -1.406689   1.996222   3.768134  -0.007857  -0.001459  -4.432040   0.386572   0.589338   1.246126  -0.002853  -0.000198
 -2.374582   0.924772   3.980738  -0.173748   0.822470   0.070313  -1.143574  -0.527432   0.248198   0.591455  -1.268117   0.189433  -0.023432   0.351037  -0.127179   1.363487  -2.005318   7.286648   4.272126   2.129610  21.736752   0.152716   7.041066  -0.021833   2.538100  -0.051229  -5.178402   1.634678   1.896811  -8.306951   7.164187  -1.992380 -21.199697   0.133151  -6.273118   0.035018   3.074907  -0.593873   3.858808  -0.660200   0.201805  -3.272397   3.701838   0.009384   0.001046  -3.931918  -1.541743   0.056228  -0.874321  -0.001810  -0.000065   0.210499  -1.484727   2.489249   3.751471  -0.006217  -0.001168  -4.713225   0.431202   0.613949   1.422815  -0.003035  -0.000151
 -2.374242   0.921334   3.980969  -0.048877   0.867248   0.039654  -1.276708  -0.583465   0.360304   0.575549  -1.428151   0.207044  -0.090129   0.300380  -0.155502   1.566008  -2.157632   7.974730   4.856426   2.544815  24.663185   0.155035   8.006374  -0.023342   2.831815   0.092350  -4.045701   1.932085   2.078254  -8.983712   7.890301  -2.492221 -24.244408   0.133166  -7.068879   0.035736   3.427906  -1.000948   2.589818  -0.999828   0.049899  -3.761227   4.295313   0.010147  -0.000060  -4.185662  -1.770062   0.220621  -0.808530  -0.001240  -0.000246   0.178744  -1.557898   2.932534   3.637454  -0.004560  -0.000940  -4.978784   0.472378   0.636909   1.591912  -0.003066  -0.000087
 -2.373880   0.921029   3.981478  -0.036220   0.848138   0.137158  -1.352158  -0.606918   0.373439   0.611178  -1.554624   0.185980  -0.135452   0.253469  -0.184938   1.749802  -2.278688   8.740726   5.375140   2.969839  27.390744   0.153636   8.905599  -0.023609   3.116552   0.224645  -3.188613   2.206633   2.244389  -9.720965   8.540246  -2.990382 -27.065335   0.130190  -7.803529   0.035213   3.760899  -1.345910   1.608546  -1.345934  -0.202131  -3.950150   4.950810   0.008501  -0.001881  -4.165538  -2.079218   0.564594  -0.662456  -0.001290  -0.000975   0.110687  -1.507717   2.824529   3.776818  -0.003637  -0.000701  -4.825481   0.607986   0.470134   1.816125  -0.002106   0.000259
 -2.373584   0.920845   3.982121  -0.007290   0.839180   0.230235  -1.444279  -0.633095   0.404975   0.637167  -1.671397   0.163377  -0.177775   0.209092  -0.215087   1.925371  -2.397689   9.307443   5.843314   3.386204  29.891059   0.147688   9.750474  -0.023059   3.388833   0.387441  -2.344064   2.466981   2.408981 -10.271013   9.128344  -3.477352 -29.658707   0.123840  -8.494023   0.033814   4.074455  -1.709534   0.640426  -1.631566  -0.340828  -4.102750   5.520128   0.006994  -0.002441  -4.339690  -2.276337   0.710781  -0.565367  -0.001101  -0.001092   0.079527  -1.548650   2.704596   3.870349  -0.002892  -0.000598  -4.897113   0.649388   0.461992   1.994299  -0.001630   0.000199
 -2.373367   0.920687   3.982794   0.042077   0.844607   0.318726  -1.536986  -0.658228   0.444538   0.652391  -1.779842   0.147025  -0.220565   0.167453  -0.242277   2.088981  -2.511506   9.741827   6.264527   3.786544  32.160133   0.138828  10.538579  -0.022059   3.648193   0.547125  -1.629760   2.709377   2.566494 -10.694183   9.659697  -3.945582 -32.016734   0.115333  -9.136975   0.031835   4.369618  -2.056741  -0.198915  -1.898567  -0.457800  -4.241905   6.024683   0.005729  -0.002602  -4.521851  -2.454585   0.837275  -0.492938  -0.000929  -0.001070   0.047458  -1.597850   2.594128   3.927792  -0.002305  -0.000499  -4.988920   0.682095   0.462596   2.140149  -0.001276   0.000148
 -2.373231   0.920543   3.983473   0.103441   0.866645   0.402957  -1.621641  -0.681216   0.489414   0.664938  -1.879962   0.137105  -0.261957   0.128482  -0.266747   2.240455  -2.618585  10.075317   6.643351   4.170234  34.225889   0.128428  11.273375  -0.020861   3.895272   0.695558  -1.045598   2.934197   2.715824 -11.017958  10.140142  -4.393687 -34.165069   0.105749  -9.735162   0.029525   4.648221  -2.378441  -0.906069  -2.151212  -0.565277  -4.369303   6.483892   0.004677  -0.002552  -4.697709  -2.621093   0.954107  -0.428829  -0.000785  -0.001008   0.011467  -1.645544   2.494521   3.964961  -0.001840  -0.000407  -5.085328   0.712000   0.464512   2.271682  -0.001004   0.000125
 -2.373241   0.920444   3.984238   0.166123   0.888479   0.464147  -1.686020  -0.687500   0.484137   0.656343  -1.905276   0.200719  -0.264003   0.031265  -0.288730   2.352720  -2.805729  10.093157   7.010925   4.512988  35.804984   0.115173  12.024424  -0.019552   4.091832   0.944452   0.134694   3.135338   2.862217 -10.978636  10.457844  -4.836998 -35.998862   0.095621 -10.405571   0.026778   4.896202  -2.694612  -2.077145  -2.278470  -0.666368  -4.448819   6.686941   0.003744  -0.002213  -4.702977  -2.640887   0.994893  -0.240209  -0.000665  -0.000986   0.058087  -1.673887   2.429521   3.833797  -0.001477  -0.000316  -5.051246   0.774300   0.514933   2.349981  -0.000832   0.000137
